<?xml version="1.0" encoding="UTF-8" standalone="no"?>
<!-- Created with Inkscape (http://www.inkscape.org/) -->

<svg
   xmlns:dc="http://purl.org/dc/elements/1.1/"
   xmlns:cc="http://creativecommons.org/ns#"
   xmlns:rdf="http://www.w3.org/1999/02/22-rdf-syntax-ns#"
   xmlns:svg="http://www.w3.org/2000/svg"
   xmlns="http://www.w3.org/2000/svg"
   xmlns:sodipodi="http://sodipodi.sourceforge.net/DTD/sodipodi-0.dtd"
   xmlns:inkscape="http://www.inkscape.org/namespaces/inkscape"
   width="210mm"
   height="297mm"
   id="svg2"
   version="1.1"
   inkscape:version="0.48.2 r9819"
   sodipodi:docname="logo.svg">
  <defs
     id="defs4" />
  <sodipodi:namedview
     id="base"
     pagecolor="#ffffff"
     bordercolor="#666666"
     borderopacity="1.0"
     inkscape:pageopacity="0.0"
     inkscape:pageshadow="2"
     inkscape:zoom="0.35"
     inkscape:cx="350"
     inkscape:cy="520"
     inkscape:document-units="px"
     inkscape:current-layer="layer1"
     showgrid="false"
     inkscape:window-width="504"
     inkscape:window-height="425"
     inkscape:window-x="50"
     inkscape:window-y="50"
     inkscape:window-maximized="0"
     objecttolerance="10000" />
  <metadata
     id="metadata7">
    <rdf:RDF>
      <cc:Work
         rdf:about="">
        <dc:format>image/svg+xml</dc:format>
        <dc:type
           rdf:resource="http://purl.org/dc/dcmitype/StillImage" />
        <dc:title></dc:title>
      </cc:Work>
    </rdf:RDF>
  </metadata>
  <g
     inkscape:label="Capa 1"
     inkscape:groupmode="layer"
     id="layer1">
    <g
       id="g4006"
       transform="translate(542.30363,418.91072)">
      <path
         sodipodi:nodetypes="ccccccccccccccccccccccccccccccccc"
         inkscape:connector-curvature="0"
         id="path3850"
         d="m -268.53584,87.199393 14.25013,-0.01578 0,3.928572 21.96428,0 0,-3.75 10.89286,0 0,4.642857 7.85714,0 0,-4.107143 30.89286,0 0,4.464286 15.35714,0 0,-6.071429 25.71429,0 0,15.535714 3.21428,0 0,2.85714 2.32143,0 0,2.67857 -2.33988,0 0,-2.63617 -3.91012,0 0,2.63617 -2.67857,0 0,1.96429 -3.92857,0 0,-2.5 -80.75,0 0,5.21428 -16.125,0 0,-4.94643 -22.23214,0 0,-19.999993"
         style="fill:#ffffff;stroke:#000000;stroke-width:1px;stroke-linecap:butt;stroke-linejoin:miter;stroke-opacity:1" />
      <text
         sodipodi:linespacing="125%"
         id="text3846"
         y="106.4336"
         x="-266.42859"
         style="font-size:28px;font-style:normal;font-variant:normal;font-weight:normal;font-stretch:normal;line-height:125%;letter-spacing:0px;word-spacing:0px;fill:#000000;fill-opacity:1;stroke:none;font-family:Andalus;-inkscape-font-specification:Andalus"
         xml:space="preserve"><tspan
           style="font-size:24px"
           y="106.4336"
           x="-266.42859"
           id="tspan3848"
           sodipodi:role="line">Logic World</tspan></text>
    </g>
  </g>
</svg>
