<?xml version="1.0" encoding="UTF-8" standalone="no"?>
<!-- Created with Inkscape (http://www.inkscape.org/) -->

<svg
   xmlns:dc="http://purl.org/dc/elements/1.1/"
   xmlns:cc="http://creativecommons.org/ns#"
   xmlns:rdf="http://www.w3.org/1999/02/22-rdf-syntax-ns#"
   xmlns:svg="http://www.w3.org/2000/svg"
   xmlns="http://www.w3.org/2000/svg"
   xmlns:xlink="http://www.w3.org/1999/xlink"
   xmlns:sodipodi="http://sodipodi.sourceforge.net/DTD/sodipodi-0.dtd"
   xmlns:inkscape="http://www.inkscape.org/namespaces/inkscape"
   version="1.0"
   width="65"
   height="70"
   id="svg2"
   sodipodi:version="0.32"
   inkscape:version="0.48.2 r9819"
   sodipodi:docname="chancho.svg"
   inkscape:output_extension="org.inkscape.output.svg.inkscape">
  <metadata
     id="metadata2492">
    <rdf:RDF>
      <cc:Work
         rdf:about="">
        <dc:format>image/svg+xml</dc:format>
        <dc:type
           rdf:resource="http://purl.org/dc/dcmitype/StillImage" />
      </cc:Work>
    </rdf:RDF>
  </metadata>
  <sodipodi:namedview
     inkscape:window-height="576"
     inkscape:window-width="1024"
     inkscape:pageshadow="2"
     inkscape:pageopacity="0.0"
     guidetolerance="10.0"
     gridtolerance="10.0"
     objecttolerance="10.0"
     borderopacity="1.0"
     bordercolor="#666666"
     pagecolor="#ffffff"
     id="base"
     showgrid="false"
     inkscape:zoom="4.0307025"
     inkscape:cx="77.388113"
     inkscape:cy="37.614573"
     inkscape:window-x="0"
     inkscape:window-y="24"
     inkscape:current-layer="svg2"
     showguides="true"
     inkscape:guide-bbox="true"
     inkscape:window-maximized="1" />
  <defs
     id="defs4">
    <inkscape:perspective
       sodipodi:type="inkscape:persp3d"
       inkscape:vp_x="0 : 127.13264 : 1"
       inkscape:vp_y="0 : 1000 : 0"
       inkscape:vp_z="224.65625 : 127.13264 : 1"
       inkscape:persp3d-origin="112.32812 : 84.755096 : 1"
       id="perspective2494" />
    <linearGradient
       gradientUnits="userSpaceOnUse"
       y2="16.656706"
       x2="-785.38751"
       y1="16.878105"
       x1="-776.61304"
       id="linearGradient3825"
       xlink:href="#linearGradient3819"
       inkscape:collect="always" />
    <radialGradient
       gradientUnits="userSpaceOnUse"
       gradientTransform="matrix(0.517926,2.44435e-8,-3.92128e-8,0.448932,-208.632,-91.5228)"
       r="100.02526"
       fy="-155.89888"
       fx="-411.91803"
       cy="-155.89888"
       cx="-411.91803"
       id="radialGradient3793"
       xlink:href="#linearGradient3787"
       inkscape:collect="always" />
    <radialGradient
       gradientUnits="userSpaceOnUse"
       gradientTransform="matrix(0.212104,-0.443078,1.01022,0.483598,-531.228,-450.26)"
       r="115.36326"
       fy="-94.644592"
       fx="-813.12628"
       cy="-94.644592"
       cx="-813.12628"
       id="radialGradient3783"
       xlink:href="#linearGradient3777"
       inkscape:collect="always" />
    <inkscape:perspective
       id="perspective2915"
       inkscape:persp3d-origin="372.04724 : 350.78739 : 1"
       inkscape:vp_z="744.09448 : 526.18109 : 1"
       inkscape:vp_y="0 : 1000 : 0"
       inkscape:vp_x="0 : 526.18109 : 1"
       sodipodi:type="inkscape:persp3d" />
    <linearGradient
       id="linearGradient3777"
       inkscape:collect="always">
      <stop
         id="stop3779"
         offset="0"
         style="stop-color:#e9c6af;stop-opacity:1" />
      <stop
         id="stop3781"
         offset="1"
         style="stop-color:#ffb380;stop-opacity:0;" />
    </linearGradient>
    <linearGradient
       id="linearGradient3787"
       inkscape:collect="always">
      <stop
         id="stop3789"
         offset="0"
         style="stop-color:#e9c6af;stop-opacity:1;" />
      <stop
         id="stop3791"
         offset="1"
         style="stop-color:#e9c6af;stop-opacity:0;" />
    </linearGradient>
    <linearGradient
       id="linearGradient3805">
      <stop
         id="stop3807"
         offset="0"
         style="stop-color:#ffffff;stop-opacity:1;" />
      <stop
         id="stop3809"
         offset="1"
         style="stop-color:#000000;stop-opacity:1" />
    </linearGradient>
    <linearGradient
       id="linearGradient3819"
       inkscape:collect="always">
      <stop
         id="stop3821"
         offset="0"
         style="stop-color:#ffffff;stop-opacity:1;" />
      <stop
         id="stop3823"
         offset="1"
         style="stop-color:#ffffff;stop-opacity:0;" />
    </linearGradient>
    <inkscape:perspective
       id="perspective2791"
       inkscape:persp3d-origin="372.04724 : 350.78739 : 1"
       inkscape:vp_z="744.09448 : 526.18109 : 1"
       inkscape:vp_y="0 : 1000 : 0"
       inkscape:vp_x="0 : 526.18109 : 1"
       sodipodi:type="inkscape:persp3d" />
    <linearGradient
       y2="501.29077"
       x2="320.22107"
       y1="215.21931"
       x1="-60.221073"
       gradientUnits="userSpaceOnUse"
       id="linearGradient3222"
       xlink:href="#linearGradient3161"
       inkscape:collect="always" />
    <linearGradient
       y2="537.005"
       x2="393.21429"
       y1="180.93361"
       x1="-133.21428"
       gradientUnits="userSpaceOnUse"
       id="linearGradient3220"
       xlink:href="#linearGradient3169"
       inkscape:collect="always" />
    <linearGradient
       y2="602.7193"
       x2="393.21429"
       y1="544.86218"
       x1="-133.21428"
       gradientTransform="matrix(1.17318,0,0,1.22714,-28.2282,-58.9006)"
       gradientUnits="userSpaceOnUse"
       id="linearGradient3218"
       xlink:href="#linearGradient3169"
       inkscape:collect="always" />
    <linearGradient
       id="linearGradient3161">
      <stop
         id="stop3163"
         offset="0"
         style="stop-color: rgb(0, 190, 255); stop-opacity: 1;" />
      <stop
         id="stop3165"
         offset="1"
         style="stop-color: rgb(0, 116, 255); stop-opacity: 1;" />
    </linearGradient>
    <linearGradient
       id="linearGradient3169">
      <stop
         id="stop3171"
         offset="0"
         style="stop-color: rgb(212, 212, 212); stop-opacity: 1;" />
      <stop
         id="stop3173"
         offset="1"
         style="stop-color: rgb(159, 150, 150); stop-opacity: 1;" />
    </linearGradient>
    <linearGradient
       id="linearGradient3274">
      <stop
         id="stop3276"
         offset="0"
         style="stop-color: rgb(255, 0, 0); stop-opacity: 1;" />
      <stop
         id="stop3278"
         offset="1"
         style="stop-color: rgb(255, 98, 98); stop-opacity: 1;" />
    </linearGradient>
    <inkscape:perspective
       id="perspective32"
       inkscape:persp3d-origin="372.04724 : 350.78739 : 1"
       inkscape:vp_z="744.09448 : 526.18109 : 1"
       inkscape:vp_y="0 : 1000 : 0"
       inkscape:vp_x="0 : 526.18109 : 1"
       sodipodi:type="inkscape:persp3d" />
  </defs>
  <g
     inkscape:label="Layer 1"
     id="g2927"
     transform="translate(-374.999,-263.2864)" />
  <g
     id="g4340"
     inkscape:export-filename="C:\D\GFX\Inkscape\InkscapeWORK\PIGicon.png"
     inkscape:export-xdpi="87.989998"
     inkscape:export-ydpi="87.989998"
     transform="matrix(0.2394648,0,0,0.25030461,133.07328,4.8502082)">
    <path
       id="path2980"
       d="m -304.78001,60.334068 c -2.74799,-0.06065 -5.52707,0.537773 -8.06295,1.875729 -1.17606,0.622032 -1.6104,2.052618 -0.97012,3.19524 0.64027,1.142622 2.11271,1.564558 3.28869,0.942401 5.66804,-2.990521 13.16169,-0.809489 16.10695,5.342152 2.62479,5.482243 0.70994,12.697762 -4.52357,16.927545 -0.0427,-1.809908 -0.26146,-3.60564 -0.81386,-5.332958 -2.77176,-8.667073 -11.43895,-12.996642 -18.3309,-10.288932 -7.14984,2.809041 -9.03047,11.917137 -3.89897,18.058499 0.2808,0.336063 0.58143,0.657329 0.88958,0.965449 -2.48025,-1.044485 -5.17536,-1.260497 -7.65602,-0.358594 -3.11518,1.132597 -5.15483,3.800802 -5.63081,6.739755 -0.46888,2.895096 0.53715,6.069476 2.99049,8.523536 -2.38388,-0.99607 -5.02937,-1.13649 -7.41942,-0.11953 -5.49784,2.33932 -6.74179,9.6329 -2.39428,14.25187 2.25325,2.39396 5.46451,3.72371 8.95251,3.94456 -0.53252,0.50119 -1.10091,0.97084 -1.76021,1.34243 -3.68503,2.07682 -8.17938,1.13091 -10.06921,-1.36083 -0.50968,-0.68795 -1.36068,-1.05658 -2.22801,-0.96506 -0.86733,0.0915 -1.61706,0.629 -1.96288,1.40719 -0.34581,0.77822 -0.23433,1.67698 0.29189,2.35307 3.57706,4.71632 10.73269,5.82391 16.40033,2.62971 2.69544,-1.51912 4.66056,-3.77726 5.88633,-6.326 1.49281,-0.49743 2.97013,-1.14553 4.36269,-2.05962 4.56553,-2.99684 7.46983,-7.64896 8.43203,-12.54165 1.47722,-0.59705 2.93072,-1.31276 4.31537,-2.2711 4.48347,-3.10311 7.49635,-7.623141 8.85788,-12.468089 0.62095,-0.302039 1.23612,-0.623231 1.83593,-0.993034 8.42988,-5.197287 11.86546,-15.687057 7.86421,-24.044284 -2.81484,-5.879216 -8.70811,-9.236023 -14.75367,-9.369455 l 0,0 z M -313.089,76.96738 c 3.3936,0.330629 7.15463,2.861967 8.70646,7.714399 0.65972,2.06292 0.74815,4.344819 0.40693,6.629419 -5.49647,1.731124 -11.33999,0.267039 -14.25211,-3.218165 -3.37886,-4.043802 -2.14111,-9.119439 1.95896,-10.730279 0.95426,-0.37491 2.04855,-0.505584 3.17976,-0.395374 z m -3.67185,18.076889 c 3.31674,1.590099 7.23248,2.097473 11.14805,1.489548 -1.29938,2.654462 -3.23098,5.075123 -5.78223,6.840903 -0.40116,0.27765 -0.81947,0.48236 -1.23027,0.71719 -0.10188,-0.95361 -0.2851,-1.88995 -0.54888,-2.8136 -0.71599,-2.507077 -2.00619,-4.583983 -3.58667,-6.234041 z m -9.16073,0.781552 c 2.8121,-0.235831 6.69098,1.832705 8.08188,6.702979 0.30642,1.07297 0.40945,2.22571 0.39747,3.39286 -4.24623,0.85367 -8.28331,-0.1178 -10.42883,-2.20674 -1.52682,-1.48656 -1.96055,-3.16673 -1.73183,-4.578981 0.22872,-1.412263 1.06223,-2.528264 2.55515,-3.071053 0.34783,-0.126464 0.72444,-0.205374 1.12616,-0.239065 z m -1.76967,13.635819 c 2.74415,1.31267 5.97198,1.82133 9.32159,1.44358 -1.06912,2.83369 -2.99999,5.45073 -5.67812,7.20868 -0.0811,0.0532 -0.16452,0.0869 -0.24607,0.13793 0.02,-1.43069 -0.15443,-2.86535 -0.60565,-4.23879 -0.59336,-1.80598 -1.59188,-3.31391 -2.79175,-4.5514 z m -7.25855,1.36083 c 2.07619,0.14259 4.44272,1.6136 5.43208,4.62496 0.47489,1.44546 0.48706,3.0801 0.1041,4.67093 -3.38427,0.46685 -6.54232,-0.46707 -8.21436,-2.24351 -2.45534,-2.60866 -1.65096,-5.72951 0.76654,-6.75815 0.56694,-0.24123 1.21959,-0.34177 1.91164,-0.29423 z"
       style="font-size:medium;font-style:normal;font-variant:normal;font-weight:normal;font-stretch:normal;text-indent:0;text-align:start;text-decoration:none;line-height:normal;letter-spacing:normal;word-spacing:normal;text-transform:none;direction:ltr;block-progression:tb;writing-mode:lr-tb;text-anchor:start;fill:#ffaaaa;fill-opacity:1;stroke:#000000;stroke-width:1.79101098;marker:none;visibility:visible;display:inline;overflow:visible;enable-background:accumulate;font-family:Bitstream Vera Sans;-inkscape-font-specification:Bitstream Vera Sans"
       inkscape:connector-curvature="0" />
    <path
       d="m -328.23695,131.25746 c 0.018,60.50823 -49.02851,109.56941 -109.53675,109.56941 -60.50823,0 -109.55478,-49.06118 -109.53674,-109.56941 -0.018,-60.50823 49.02851,-109.569403 109.53674,-109.569403 60.50824,0 109.55478,49.061173 109.53675,109.569403 z"
       id="path2383"
       style="fill:#ffaaaa;fill-opacity:1;fill-rule:nonzero;stroke:#000000;stroke-width:4;stroke-linecap:round;stroke-linejoin:round;stroke-miterlimit:4;stroke-opacity:1;stroke-dasharray:none"
       inkscape:connector-curvature="0" />
    <path
       d="m -334.85923,93.676599 c 0.0768,1.68161 0.125,3.39329 0.125,5.09375 0,60.464281 -49.06696,109.531251 -109.53125,109.531251 -47.26217,0 -87.5912,-29.99927 -102.9375,-71.96875 2.65351,58.11219 50.67363,104.46875 109.4375,104.46875 60.46429,0 109.53125,-49.06697 109.53125,-109.53125 0,-13.20218 -2.33815,-25.87003 -6.625,-37.593751 z"
       id="path3221"
       style="fill:#000000;fill-opacity:0.31372549;fill-rule:nonzero;stroke:none"
       inkscape:connector-curvature="0" />
    <path
       d="m -429.59342,241.82709 c 0,9.09078 14.66533,9.38135 32.73511,9.38135 18.06978,0 32.73512,0.69349 32.73512,-9.38135 0,-17.71594 -14.66534,-32.0941 -32.73512,-32.0941 -18.06978,0 -32.73511,14.37816 -32.73511,32.0941 z"
       id="path3172"
       style="fill:#412424;fill-opacity:1;fill-rule:nonzero;stroke:#000000;stroke-width:3.99999976;stroke-linecap:round;stroke-linejoin:round;stroke-miterlimit:4;stroke-opacity:1"
       inkscape:connector-curvature="0" />
    <path
       d="m -384.26788,250.6075 c 0,-16.36756 -9.44283,-26.43991 -9.44283,-26.43991 0,0 3.77713,13.84948 3.14761,26.43991 l 6.29522,0 z"
       id="path3174"
       style="fill:#000000;fill-opacity:0.31372549;fill-rule:evenodd;stroke:#000000;stroke-width:4;stroke-linecap:butt;stroke-linejoin:round;stroke-miterlimit:4;stroke-opacity:1;stroke-dasharray:none"
       inkscape:connector-curvature="0" />
    <path
       d="m -444.59123,241.82709 c 0,9.09078 -14.66533,9.38135 -32.73511,9.38135 -18.06978,0 -32.73512,0.69349 -32.73512,-9.38135 0,-17.71594 14.66534,-32.0941 32.73512,-32.0941 18.06978,0 32.73511,14.37816 32.73511,32.0941 z"
       id="path3329"
       style="fill:#412424;fill-opacity:1;fill-rule:nonzero;stroke:#000000;stroke-width:3.99999976;stroke-linecap:round;stroke-linejoin:round;stroke-miterlimit:4;stroke-opacity:1"
       inkscape:connector-curvature="0" />
    <path
       d="m -489.91677,250.6075 c 0,-16.36756 9.44283,-26.43991 9.44283,-26.43991 0,0 -3.77713,13.84948 -3.14761,26.43991 l -6.29522,0 z"
       id="path3331"
       style="fill:#000000;fill-opacity:0.31372549;fill-rule:evenodd;stroke:#000000;stroke-width:4;stroke-linecap:butt;stroke-linejoin:round;stroke-miterlimit:4;stroke-opacity:1;stroke-dasharray:none"
       inkscape:connector-curvature="0" />
    <g
       transform="matrix(-1,0,0,1,-875.44,0)"
       id="g4318">
      <path
         sodipodi:nodetypes="csssc"
         style="fill:#ffaaaa;fill-opacity:1;fill-rule:nonzero;stroke:#000000;stroke-width:3.7822125;stroke-linecap:round;stroke-linejoin:round;stroke-miterlimit:4;stroke-opacity:1"
         id="path4320"
         d="m -411.76872,11.247847 c -7.03757,6.405003 0.52886,16.455904 10.12894,28.587798 9.60008,12.131894 16.85459,22.466685 24.65396,15.368354 13.71469,-12.481947 33.09713,-47.0594548 23.49705,-59.1913483 -9.60008,-12.1318947 -44.56527,2.7532491 -58.27995,15.2351963 z"
         inkscape:connector-curvature="0" />
      <path
         id="path4322"
         d="m -385.21916,9.4401857 c 5.45143,-3.9876433 19.60258,-6.9171881 27.89439,-8.2991561"
         style="fill:none;stroke:#000000;stroke-width:3.5;stroke-linecap:round;stroke-linejoin:round;stroke-miterlimit:4;stroke-opacity:1;stroke-dasharray:none"
         inkscape:connector-curvature="0" />
    </g>
    <g
       id="g4314">
      <path
         d="m -411.76872,11.247847 c -7.03757,6.405003 0.52886,16.455904 10.12894,28.587798 9.60008,12.131894 16.85459,22.466685 24.65396,15.368354 13.71469,-12.481947 33.09713,-47.0594548 23.49705,-59.1913483 -9.60008,-12.1318947 -44.56527,2.7532491 -58.27995,15.2351963 z"
         id="path4310"
         style="fill:#ffaaaa;fill-opacity:1;fill-rule:nonzero;stroke:#000000;stroke-width:3.7822125;stroke-linecap:round;stroke-linejoin:round;stroke-miterlimit:4;stroke-opacity:1"
         sodipodi:nodetypes="csssc"
         inkscape:connector-curvature="0" />
      <path
         style="fill:none;stroke:#000000;stroke-width:3.5;stroke-linecap:round;stroke-linejoin:round;stroke-miterlimit:4;stroke-opacity:1;stroke-dasharray:none"
         d="m -385.21916,9.4401857 c 5.45143,-3.9876433 19.60258,-6.9171881 27.89439,-8.2991561"
         id="path4312"
         inkscape:connector-curvature="0" />
    </g>
    <path
       style="fill:#ffaaaa;fill-opacity:1;fill-rule:nonzero;stroke:#000000;stroke-width:3.03129601;stroke-linecap:round;stroke-linejoin:round;stroke-miterlimit:4;stroke-opacity:1;stroke-dasharray:none"
       id="path4252"
       d="m -354.39725,76.487883 c 0.0137,45.652827 -37.3192,82.668967 -83.37645,82.668967 -46.05724,0 -83.39016,-37.01614 -83.37644,-82.668967 -0.0137,-45.652825 37.3192,-82.6689662 83.37644,-82.6689662 46.05725,0 83.39017,37.0161412 83.37645,82.6689662 z"
       inkscape:connector-curvature="0" />
    <path
       style="fill:#ffaaaa;fill-opacity:1;fill-rule:nonzero;stroke:#000000;stroke-width:2.70000005;stroke-linecap:round;stroke-linejoin:round;stroke-miterlimit:4;stroke-opacity:1;stroke-dasharray:none"
       id="path4250"
       d="m -402.30647,115.51086 c 0.006,15.51708 -15.87508,28.0986 -35.46723,28.0986 -19.59214,0 -35.47307,-12.58152 -35.46722,-28.0986 -0.006,-15.517067 15.87508,-28.098592 35.46722,-28.098592 19.59215,0 35.47306,12.581525 35.46723,28.098592 z"
       inkscape:connector-curvature="0" />
    <g
       transform="matrix(1.38703,0,0,1.38703,-586.342,-23.0197)"
       id="g4275">
      <path
         style="fill:#ffffff;fill-opacity:1;fill-rule:nonzero;stroke:#000000;stroke-width:2.70958376;stroke-linecap:round;stroke-linejoin:round;stroke-miterlimit:4;stroke-opacity:1;stroke-dasharray:none"
         id="path4277"
         d="m 142.81901,56.166743 c 0.003,8.480287 -6.87139,15.35625 -15.35167,15.35625 -8.48029,0 -15.3542,-6.875963 -15.35168,-15.35625 -0.003,-8.480281 6.87139,-15.356244 15.35168,-15.356244 8.48028,0 15.3542,6.875963 15.35167,15.356244 z"
         inkscape:connector-curvature="0" />
      <path
         style="fill:#000000;fill-opacity:1;fill-rule:nonzero;stroke:none"
         id="path4279"
         d="m 129.17308,58.876327 c 8.4e-4,2.82676 -2.29046,5.11875 -5.11722,5.11875 -2.82676,0 -5.11807,-2.29199 -5.11722,-5.11875 -8.5e-4,-2.82676 2.29046,-5.118743 5.11722,-5.118743 2.82676,0 5.11806,2.291983 5.11722,5.118743 z"
         inkscape:connector-curvature="0" />
    </g>
    <g
       transform="matrix(1.38703,0,0,1.38703,-594.986,-23.0197)"
       id="g4281">
      <path
         style="fill:#ffffff;fill-opacity:1;fill-rule:nonzero;stroke:#000000;stroke-width:2.70958376;stroke-linecap:round;stroke-linejoin:round;stroke-miterlimit:4;stroke-opacity:1;stroke-dasharray:none"
         id="path4283"
         d="m 107.09843,56.166743 c 0.003,8.480287 -6.8714,15.35625 -15.351677,15.35625 -8.480287,0 -15.354204,-6.875963 -15.351677,-15.35625 -0.0025,-8.480281 6.87139,-15.356244 15.351677,-15.356244 8.480277,0 15.354197,6.875963 15.351677,15.356244 z"
         inkscape:connector-curvature="0" />
      <path
         style="fill:#000000;fill-opacity:1;fill-rule:nonzero;stroke:none"
         id="path4285"
         d="m 100.70189,58.876327 c 8.4e-4,2.82676 -2.290461,5.11875 -5.117221,5.11875 -2.82676,0 -5.118066,-2.29199 -5.117219,-5.11875 -8.47e-4,-2.82676 2.290459,-5.118743 5.117219,-5.118743 2.82676,0 5.118061,2.291983 5.117221,5.118743 z"
         inkscape:connector-curvature="0" />
    </g>
    <path
       sodipodi:nodetypes="ccsscssc"
       d="m -359.00474,50.265142 -1.97558,2.821422 c 0.26223,3.266721 0.3622,6.588336 0.3622,9.957961 0,47.983565 -50.99258,87.806555 -86.234,82.585785 -29.34464,-4.3472 -56.97277,-15.7047 -72.74132,-50.584771 8.02432,42.748901 52.8388,69.249861 77.81199,69.002171 55.36686,-0.5434 86.23397,-37.31928 86.23397,-85.3028 0,-9.97554 -1.13307,-19.555056 -3.45726,-28.479768 z"
       id="path4287"
       style="fill:#000000;fill-opacity:0.31372549;fill-rule:nonzero;stroke:none"
       inkscape:connector-curvature="0" />
    <path
       style="fill:#000000;fill-opacity:1;fill-rule:nonzero;stroke:none"
       id="path4328"
       d="m -415.17503,113.97119 c 10e-4,3.9208 -3.17693,7.09986 -7.09773,7.09986 -3.9208,0 -7.09891,-3.17906 -7.09774,-7.09986 -0.001,-3.92079 3.17694,-7.09984 7.09774,-7.09984 3.9208,0 7.0989,3.17905 7.09773,7.09984 z"
       inkscape:connector-curvature="0" />
    <path
       style="fill:#000000;fill-opacity:1;fill-rule:nonzero;stroke:none"
       id="path4334"
       d="m -447.30975,113.97119 c 0.001,3.9208 -3.17693,7.09986 -7.09773,7.09986 -3.9208,0 -7.09891,-3.17906 -7.09773,-7.09986 -0.001,-3.92079 3.17693,-7.09984 7.09773,-7.09984 3.9208,0 7.0989,3.17905 7.09773,7.09984 z"
       inkscape:connector-curvature="0" />
  </g>
</svg>
