<?xml version="1.0" encoding="UTF-8" standalone="no"?>
<!-- Created with Inkscape (http://www.inkscape.org/) -->

<svg
   xmlns:dc="http://purl.org/dc/elements/1.1/"
   xmlns:cc="http://creativecommons.org/ns#"
   xmlns:rdf="http://www.w3.org/1999/02/22-rdf-syntax-ns#"
   xmlns:svg="http://www.w3.org/2000/svg"
   xmlns="http://www.w3.org/2000/svg"
   xmlns:xlink="http://www.w3.org/1999/xlink"
   xmlns:sodipodi="http://sodipodi.sourceforge.net/DTD/sodipodi-0.dtd"
   xmlns:inkscape="http://www.inkscape.org/namespaces/inkscape"
   width="75"
   height="60"
   id="svg2"
   sodipodi:version="0.32"
   inkscape:version="0.48.2 r9819"
   sodipodi:docname="pato.svg"
   inkscape:output_extension="org.inkscape.output.svg.inkscape"
   version="1.1">
  <defs
     id="defs4">
    <linearGradient
       inkscape:collect="always"
       id="linearGradient3516">
      <stop
         style="stop-color:#ffe680;stop-opacity:1;"
         offset="0"
         id="stop3518" />
      <stop
         style="stop-color:#ffe680;stop-opacity:0;"
         offset="1"
         id="stop3520" />
    </linearGradient>
    <linearGradient
       inkscape:collect="always"
       id="linearGradient3430">
      <stop
         style="stop-color:#008066;stop-opacity:1;"
         offset="0"
         id="stop3432" />
      <stop
         style="stop-color:#008066;stop-opacity:0.01"
         offset="1"
         id="stop3434" />
    </linearGradient>
    <linearGradient
       inkscape:collect="always"
       id="linearGradient3402">
      <stop
         style="stop-color:#00aa88;stop-opacity:1;"
         offset="0"
         id="stop3404" />
      <stop
         style="stop-color:#00aa88;stop-opacity:0;"
         offset="1"
         id="stop3406" />
    </linearGradient>
    <linearGradient
       inkscape:collect="always"
       id="linearGradient3272">
      <stop
         style="stop-color:#005544;stop-opacity:1;"
         offset="0"
         id="stop3274" />
      <stop
         style="stop-color:#005544;stop-opacity:0;"
         offset="1"
         id="stop3276" />
    </linearGradient>
    <linearGradient
       inkscape:collect="always"
       id="linearGradient3254">
      <stop
         style="stop-color:#005544;stop-opacity:1;"
         offset="0"
         id="stop3256" />
      <stop
         style="stop-color:#005544;stop-opacity:0;"
         offset="1"
         id="stop3258" />
    </linearGradient>
    <linearGradient
       inkscape:collect="always"
       id="linearGradient3244">
      <stop
         style="stop-color:#005544;stop-opacity:1;"
         offset="0"
         id="stop3246" />
      <stop
         style="stop-color:#005544;stop-opacity:0;"
         offset="1"
         id="stop3248" />
    </linearGradient>
    <linearGradient
       inkscape:collect="always"
       id="linearGradient3234">
      <stop
         style="stop-color:#00aa88;stop-opacity:1;"
         offset="0"
         id="stop3236" />
      <stop
         style="stop-color:#00aa88;stop-opacity:0;"
         offset="1"
         id="stop3238" />
    </linearGradient>
    <linearGradient
       id="linearGradient3224">
      <stop
         style="stop-color:#008066;stop-opacity:1;"
         offset="0"
         id="stop3226" />
      <stop
         style="stop-color:#008066;stop-opacity:0;"
         offset="1"
         id="stop3228" />
    </linearGradient>
    <linearGradient
       inkscape:collect="always"
       id="linearGradient3190">
      <stop
         style="stop-color:#005544;stop-opacity:1;"
         offset="0"
         id="stop3192" />
      <stop
         style="stop-color:#005544;stop-opacity:0;"
         offset="1"
         id="stop3194" />
    </linearGradient>
    <inkscape:perspective
       sodipodi:type="inkscape:persp3d"
       inkscape:vp_x="0 : 526.18109 : 1"
       inkscape:vp_y="0 : 1000 : 0"
       inkscape:vp_z="744.09448 : 526.18109 : 1"
       inkscape:persp3d-origin="372.04724 : 350.78739 : 1"
       id="perspective10" />
    <linearGradient
       inkscape:collect="always"
       xlink:href="#linearGradient3516"
       id="linearGradient3522"
       x1="695.79822"
       y1="485.17383"
       x2="603.68903"
       y2="469.60995"
       gradientUnits="userSpaceOnUse" />
    <linearGradient
       inkscape:collect="always"
       xlink:href="#linearGradient3516"
       id="linearGradient3873"
       gradientUnits="userSpaceOnUse"
       x1="695.79822"
       y1="485.17383"
       x2="603.68903"
       y2="469.60995" />
    <linearGradient
       inkscape:collect="always"
       xlink:href="#linearGradient3244"
       id="linearGradient3900"
       gradientUnits="userSpaceOnUse"
       gradientTransform="matrix(0.11864272,0,0,0.11864272,7.5856253,958.03299)"
       x1="321.42856"
       y1="743.79077"
       x2="218.57143"
       y2="753.04443" />
    <linearGradient
       inkscape:collect="always"
       xlink:href="#linearGradient3224"
       id="linearGradient3904"
       gradientUnits="userSpaceOnUse"
       gradientTransform="matrix(0.11864272,0,0,0.11864272,7.2466464,958.06689)"
       x1="-24.285715"
       y1="662.36218"
       x2="340"
       y2="533.79077" />
    <linearGradient
       inkscape:collect="always"
       xlink:href="#linearGradient3190"
       id="linearGradient3907"
       gradientUnits="userSpaceOnUse"
       gradientTransform="matrix(0.11864272,0,0,0.11864272,7.7551147,957.55842)"
       x1="455.71429"
       y1="618.07648"
       x2="-27.142857"
       y2="462.36218" />
    <linearGradient
       inkscape:collect="always"
       xlink:href="#linearGradient3402"
       id="linearGradient3916"
       gradientUnits="userSpaceOnUse"
       x1="280.64893"
       y1="529.00366"
       x2="490.60599"
       y2="343.01682" />
    <linearGradient
       inkscape:collect="always"
       xlink:href="#linearGradient3430"
       id="linearGradient3918"
       gradientUnits="userSpaceOnUse"
       x1="323.14743"
       y1="379.50385"
       x2="338.18884"
       y2="562.30353" />
    <linearGradient
       inkscape:collect="always"
       xlink:href="#linearGradient3516"
       id="linearGradient3920"
       gradientUnits="userSpaceOnUse"
       x1="695.79822"
       y1="485.17383"
       x2="603.68903"
       y2="469.60995" />
    <linearGradient
       inkscape:collect="always"
       xlink:href="#linearGradient3516"
       id="linearGradient3922"
       gradientUnits="userSpaceOnUse"
       x1="695.79822"
       y1="485.17383"
       x2="603.68903"
       y2="469.60995" />
    <linearGradient
       inkscape:collect="always"
       xlink:href="#linearGradient3272"
       id="linearGradient3944"
       gradientUnits="userSpaceOnUse"
       x1="19.192898"
       y1="673.55499"
       x2="81.822357"
       y2="716.99152"
       gradientTransform="matrix(0.11864272,0,0,0.11864272,7.5856253,957.55842)" />
    <linearGradient
       inkscape:collect="always"
       xlink:href="#linearGradient3254"
       id="linearGradient3947"
       gradientUnits="userSpaceOnUse"
       x1="-7.1428571"
       y1="411.64789"
       x2="111.42857"
       y2="541.64789"
       gradientTransform="matrix(0.11864272,0,0,0.11864272,7.5856253,957.55842)" />
    <linearGradient
       inkscape:collect="always"
       xlink:href="#linearGradient3234"
       id="linearGradient3950"
       gradientUnits="userSpaceOnUse"
       x1="270.71429"
       y1="623.54266"
       x2="12.142858"
       y2="644.6778"
       gradientTransform="matrix(0.11864272,0,0,0.11864272,7.5856253,957.55842)" />
  </defs>
  <sodipodi:namedview
     id="base"
     pagecolor="#ffffff"
     bordercolor="#666666"
     borderopacity="1.0"
     gridtolerance="10000"
     guidetolerance="10"
     objecttolerance="10"
     inkscape:pageopacity="0.0"
     inkscape:pageshadow="2"
     inkscape:zoom="11.313708"
     inkscape:cx="53.636892"
     inkscape:cy="42.649061"
     inkscape:document-units="px"
     inkscape:current-layer="layer1"
     showgrid="false"
     inkscape:window-width="1024"
     inkscape:window-height="576"
     inkscape:window-x="0"
     inkscape:window-y="24"
     inkscape:window-maximized="1" />
  <metadata
     id="metadata7">
    <rdf:RDF>
      <cc:Work
         rdf:about="">
        <dc:format>image/svg+xml</dc:format>
        <dc:type
           rdf:resource="http://purl.org/dc/dcmitype/StillImage" />
      </cc:Work>
    </rdf:RDF>
  </metadata>
  <g
     inkscape:label="Layer 1"
     inkscape:groupmode="layer"
     id="layer1"
     transform="translate(0,-992.36215)">
    <path
       style="opacity:0.29807691;fill:#0055d4;fill-opacity:1;stroke:none"
       d="m 614.1782,-394.16447 c -58.20095,0 -105.0625,46.83029 -105.0625,105.03125 l 0,169.71875 c 0,9.95796 1.3721,19.571684 3.9375,28.687504 l 0,84.4374996 2351.6249,0 0,-83.6874996 c 2.7027,-9.3366 4.1563,-19.206874 4.1562,-29.437504 l 0,-169.71875 c 0,-58.20095 -46.8614,-105.03125 -105.0624,-105.03125 l -2149.5937,0 z"
       id="path3541"
       inkscape:connector-curvature="0" />
    <path
       inkscape:connector-curvature="0"
       style="fill:#005544;fill-opacity:0.93725490000000000;stroke:#000000;stroke-opacity:1;stroke-width:0.6;stroke-miterlimit:4;stroke-dasharray:none"
       d="m 0.63761101,1013.7718 c -0.0545972,3.1425 -0.58313917,10.4647 2.37020619,18.8107 3.0067067,8.4967 15.2991058,18.9854 32.8815118,18.9854 17.869629,0 32.374632,-8.9625 32.374632,-20.0024 0,-11.0399 -14.505003,-19.9987 -32.374632,-19.9987 -5.378215,0 -10.450937,0.8111 -14.915614,2.2468 -5.551018,1.5219 -7.968488,-1.2025 -9.15032,-2.4173 -2.6380493,-2.7119 -2.9154269,-4.422 -3.7298306,-7.7971 -0.2688212,-1.114 -7.31756057,2.147 -7.45595339,10.1726 z"
       id="path3157"
       sodipodi:nodetypes="czssscsss" />
    <path
       inkscape:connector-curvature="0"
       style="fill:url(#linearGradient3904);fill-opacity:1;stroke:none;stroke-opacity:1;stroke-width:0.50000000000000000;stroke-miterlimit:4;stroke-dasharray:none"
       d="m 0.97659023,1014.4497 c -0.0545973,3.1426 -0.13912734,9.591 2.70918537,17.9633 2.7965785,8.2202 14.2821674,18.816 31.8645744,18.816 17.869629,0 32.374633,-8.1151 32.374633,-19.155 0,-11.0399 -14.505004,-19.9987 -32.374633,-19.9987 -5.378215,0 -10.450937,0.8111 -14.915614,2.2468 -5.551018,1.5219 -7.968489,-1.2025 -9.15032,-2.4174 -2.6380495,-2.7118 -2.9154272,-4.422 -3.7298308,-7.797 -0.2688212,-1.1141 -6.6396022,2.3164 -6.77799497,10.342 z"
       id="path3198"
       sodipodi:nodetypes="czssscsss" />
    <path
       inkscape:connector-curvature="0"
       style="fill:url(#linearGradient3907);fill-opacity:1;stroke:none"
       d="m 3.6027108,1032.2987 c 3.4618142,9.3628 15.1296172,18.816 32.7120222,18.816 17.869629,0 37.924977,-11.4934 29.662799,-26.443 -3.391099,-6.1359 -11.45419,4.0688 -29.323819,4.0688 -5.378215,0 -19.383229,-0.3308 -23.218487,-3.0519 -6.0211097,-4.272 -13.31514972,-2.8091 -9.8325152,6.6101 z"
       id="path3188"
       sodipodi:nodetypes="cssssz" />
    <path
       inkscape:connector-curvature="0"
       style="fill:#008066;fill-opacity:0.937257;fill-rule:evenodd;stroke:none"
       d="m 46.398744,1035.2954 c -3.055198,-4.2101 -13.91254,-4.9724 -19.152326,-3.3898 -5.28898,1.5975 -3.728772,1.6949 -9.491417,2.7119 -5.762646,1.0169 -9.491417,-1.356 -9.491417,-1.356 0,0 -0.3970676,2.2553 0.3389789,4.4068 4.4067301,12.8812 28.7245121,16.301 35.4233271,12.0337 6.331381,-4.0332 5.50806,-10.0862 2.372854,-14.4066 z"
       id="path3159"
       sodipodi:nodetypes="czscssz" />
    <path
       inkscape:connector-curvature="0"
       style="fill:url(#linearGradient3900);fill-opacity:1;fill-rule:evenodd;stroke:none"
       d="m 46.907212,1046.9563 c -3.050812,4.0678 -6.949073,4.4067 -10.169375,4.4067 -3.220303,0 -7.966012,-0.5084 -10.338866,-1.1864 -2.372854,-0.6779 -8.519068,-1.8045 -8.47448,-3.7288 0.04875,-2.1041 7.627033,-12.2032 14.406615,-13.3896 5.795438,-1.0142 11.225011,0.8943 13.389679,3.0508 1.71436,1.7078 4.406729,5.2542 1.186427,10.8473 z"
       id="path3242"
       sodipodi:nodetypes="csszssc" />
    <path
       style="fill:#165044;fill-rule:evenodd;stroke:none"
       d="m 7.7054725,1003.3767 c -3.0561048,1.0786 -5.4582281,4.6655 -6.0822477,7.011 -0.5347971,2.0102 -0.74904531,4.8239 -0.74904531,4.8239 0,0 1.10265361,-4.0929 1.40820521,-4.704 0.2396945,-0.4794 0.3722208,-0.8232 1.1085869,-0.6592 0.5130383,0.1143 1.8026306,2.0699 2.4568686,2.397 0.5393126,0.2696 -1.9175559,-2.5767 -2.0374031,-3.6554 -0.1198473,-1.0786 1.182211,-2.938 2.0374031,-3.6553 l 1.8576323,-1.558 z"
       id="path3186"
       sodipodi:nodetypes="cscsssszc"
       inkscape:connector-curvature="0" />
    <path
       style="fill:url(#linearGradient3950);fill-opacity:1;fill-rule:evenodd;stroke:none"
       d="m 46.737722,1035.8039 c -4.561679,-6.4115 -15.276579,-4.426 -16.622026,-4.2578 -4.06775,0.5085 -6.190502,1.853 -8.886158,2.5629 -3.227576,0.85 -7.220855,1.3774 -10.254121,0.3971 -2.5614519,-0.8278 0.762704,1.1719 0.762704,1.1719 0,0 1.829283,1.5896 5.049585,0.9117 3.220303,-0.678 9.137253,-2.7927 12.463508,-3.609 3.367829,-0.8264 7.546122,-0.8121 10.961158,-0.058 2.018338,0.4456 3.354689,0.874 6.52535,2.8813 z"
       id="path3232"
       sodipodi:nodetypes="cssscsssc"
       inkscape:connector-curvature="0" />
    <path
       style="fill:url(#linearGradient3947);fill-opacity:1;fill-rule:evenodd;stroke:none"
       d="m 15.127912,1014.2787 c -5.9321354,-2.7966 -6.8643283,-7.8813 -7.0338179,-8.9829 -0.1030883,-0.6701 -0.5932136,-1.6102 -0.5932136,-1.6102 0,0 -3.3985326,3.0613 -3.2203024,4.5762 0.1694897,1.4407 1.9668376,4.2254 3.5592816,6.0169 2.0338752,2.2881 4.1358063,5.9473 7.1185633,6.6101 2.288109,0.5085 1.186427,-0.4237 1.101682,-0.5085 -3.224757,-3.2247 -3.434027,-4.5541 -2.372854,-5.0846 1.016938,-0.5085 4.40673,-0.5933 4.40673,-0.5933 l -2.966069,-0.4237 z"
       id="path3252"
       sodipodi:nodetypes="cscssssscc"
       inkscape:connector-curvature="0" />
    <path
       style="fill:url(#linearGradient3944);fill-opacity:1;fill-rule:evenodd;stroke:none"
       d="m 8.6025629,1035.6344 c 0.3389791,2.8813 2.0338751,6.2711 3.3897921,7.2881 1.355917,1.0169 4.576219,3.2203 4.576219,3.2203 0,0 -3.389792,-2.0339 -3.389792,-4.2373 0,-2.2033 2.372854,-4.0677 2.372854,-4.0677 0,0 -3.728771,-0.339 -4.745708,-1.3559 -1.0169378,-1.017 -2.3728547,-1.1865 -2.2033651,-0.8475 z"
       id="path3262"
       inkscape:connector-curvature="0" />
    <path
       style="fill:#008066;fill-opacity:1;fill-rule:evenodd;stroke:none"
       d="m 2.072652,1021.651 c -0.2396945,-7.5504 2.2770976,-7.3107 2.2770976,-7.3107 0,0 1.0786253,-0.3595 1.6778615,0.3595 0.5992362,0.7191 8.5091539,10.5466 10.7862519,10.9061 2.277098,0.3596 11.505336,1.5581 12.943503,1.5581 1.438167,0 -10.306864,0.3595 -14.501517,-0.1199 -4.194654,-0.4794 -8.5091544,-7.6702 -9.5877797,-7.4305 -1.0786252,0.2397 -3.4755701,2.0374 -3.5954173,2.0374 z"
       id="path3280"
       inkscape:connector-curvature="0" />
    <path
       sodipodi:type="arc"
       style="fill:#005544;fill-opacity:0.93596047999999998;stroke:#000000;stroke-opacity:1;stroke-width:4.37447827;stroke-miterlimit:4;stroke-dasharray:none"
       id="path2385"
       sodipodi:cx="362.85715"
       sodipodi:cy="458.07648"
       sodipodi:rx="125.71429"
       sodipodi:ry="128.57143"
       d="m 488.57143,458.07648 a 125.71429,128.57143 0 1 1 -251.42857,0 125.71429,128.57143 0 1 1 251.42857,0 z"
       transform="matrix(0.11864272,0,0,0.11864272,5.721238,954.50761)" />
    <path
       sodipodi:type="arc"
       style="fill:url(#linearGradient3916);fill-opacity:1;stroke:none"
       id="path3330"
       sodipodi:cx="362.85715"
       sodipodi:cy="458.07648"
       sodipodi:rx="125.71429"
       sodipodi:ry="128.57143"
       d="m 488.57143,458.07648 a 125.71429,128.57143 0 1 1 -251.42857,0 125.71429,128.57143 0 1 1 251.42857,0 z"
       transform="matrix(0.10391026,0,0,0.10753325,11.812782,959.76608)" />
    <path
       sodipodi:type="arc"
       style="fill:#005544;fill-opacity:0.93596048;stroke:none"
       id="path3410"
       sodipodi:cx="362.85715"
       sodipodi:cy="458.07648"
       sodipodi:rx="125.71429"
       sodipodi:ry="128.57143"
       d="m 488.57143,458.07648 a 125.71429,128.57143 0 1 1 -251.42857,0 125.71429,128.57143 0 1 1 251.42857,0 z"
       transform="matrix(0.10987929,0,0,0.10809669,8.5621154,960.18594)" />
    <path
       sodipodi:type="arc"
       style="fill:#005544;fill-opacity:0.93596047999999998;stroke:none;stroke-width:4.47980443999999967;stroke-miterlimit:4;stroke-opacity:1;stroke-dasharray:none"
       id="path3292"
       sodipodi:cx="362.85715"
       sodipodi:cy="458.07648"
       sodipodi:rx="125.71429"
       sodipodi:ry="128.57143"
       d="m 488.57143,458.07648 a 125.71429,128.57143 0 1 1 -251.42857,0 125.71429,128.57143 0 1 1 251.42857,0 z"
       transform="matrix(0.11392394,0,0,0.11600624,7.3487254,955.64754)" />
    <path
       sodipodi:type="arc"
       style="opacity:0.29807691;fill:url(#linearGradient3918);fill-opacity:1;stroke:none"
       id="path3428"
       sodipodi:cx="315"
       sodipodi:cy="391.64789"
       sodipodi:rx="49.285713"
       sodipodi:ry="46.42857"
       d="m 364.28571,391.64789 a 49.285713,46.42857 0 1 1 -98.57142,0 49.285713,46.42857 0 1 1 98.57142,0 z"
       transform="matrix(0.13521829,0,0,0.13258799,1.6863533,952.26635)" />
    <path
       style="fill:#aa8800;fill-rule:evenodd;stroke:#000000;stroke-width:0.1;stroke-miterlimit:4;stroke-dasharray:none;stroke-opacity:1"
       d="m 56.718862,1018.046 c 1.426122,1.0272 9.58025,2.1368 13.172187,0.5155 3.273417,-1.4775 5.387584,-6.1408 4.618377,-6.3338 -1.919432,-0.4817 -19.527154,-0.8417 -19.746144,2.6717 -0.01726,0.2769 0.473117,2.0788 1.95558,3.1466 z"
       id="path3298"
       sodipodi:nodetypes="csssz"
       inkscape:connector-curvature="0" />
    <g
       style="fill:#ffcc00;stroke:none"
       id="g3446"
       transform="matrix(0.11864272,0,0,0.11864272,-8.9532885,955.40118)">
      <path
         sodipodi:nodetypes="czssssc"
         id="path3296"
         d="m 536.46702,497.59497 c 7.14286,-12.85714 20.12331,-37.07361 35.71428,-46.23423 15.16836,-8.91232 31.42858,-14.28571 41.42858,-4.28571 10,10 14.28571,20 44.28571,25.71428 30,5.71429 48.20373,-6.06219 47.14286,5.71429 -2.7549,30.58165 -40.90863,56.37781 -94.28571,48.57143 -35.75991,-5.22987 -44.84772,-8.64322 -74.28572,-29.48006 z"
         style="fill:#ffcc00;fill-rule:evenodd;stroke:none"
         inkscape:connector-curvature="0" />
    </g>
    <g
       id="g3312"
       transform="matrix(0.11864272,0,0,0.11864272,10.017493,957.50938)"
       style="stroke:none">
      <path
         transform="matrix(0.72973,0,0,0.756098,334.826,226.221)"
         d="m 97.142857,248.07646 c 0,32.34811 -23.66495,58.57143 -52.857144,58.57143 -29.192194,0 -52.8571432,-26.22332 -52.8571432,-58.57143 0,-32.34811 23.6649492,-58.57143 52.8571432,-58.57143 29.192194,0 52.857144,26.22332 52.857144,58.57143 z"
         sodipodi:ry="58.57143"
         sodipodi:rx="52.857143"
         sodipodi:cy="248.07646"
         sodipodi:cx="44.285713"
         id="path3294"
         style="fill:#ffffff;fill-opacity:1;stroke:none"
         sodipodi:type="arc" />
      <path
         d="m 398.57143,419.50504 c 0,14.2016 -9.2741,25.71428 -20.71428,25.71428 -11.44019,0 -20.71429,-11.51268 -20.71429,-25.71428 0,-14.20161 9.2741,-25.71429 20.71429,-25.71429 11.44018,0 20.71428,11.51268 20.71428,25.71429 z"
         sodipodi:ry="25.714285"
         sodipodi:rx="20.714285"
         sodipodi:cy="419.50504"
         sodipodi:cx="377.85715"
         id="path3300"
         style="fill:#000000;fill-opacity:1;stroke:none"
         sodipodi:type="arc" />
      <path
         d="m 375.71427,409.86218 c 0,6.90356 -5.27664,12.5 -11.78571,12.5 -6.50907,0 -11.78572,-5.59644 -11.78572,-12.5 0,-6.90356 5.27665,-12.5 11.78572,-12.5 6.50907,0 11.78571,5.59644 11.78571,12.5 z"
         sodipodi:ry="12.5"
         sodipodi:rx="11.785714"
         sodipodi:cy="409.86218"
         sodipodi:cx="363.92856"
         id="path3304"
         style="fill:#ffffff;fill-opacity:1;stroke:none"
         sodipodi:type="arc" />
    </g>
    <g
       id="g3317"
       transform="matrix(0.11864272,0,0,0.11864272,8.370352,957.80293)"
       style="stroke:none">
      <path
         sodipodi:open="true"
         sodipodi:end="6.2686269"
         sodipodi:start="0"
         transform="matrix(0.991507,-0.130055,0.130055,0.991507,-56.1964,61.3887)"
         d="m 472.14286,390.57648 c 0,15.97681 -6.55583,28.92857 -14.64286,28.92857 -8.08703,0 -14.64286,-12.95176 -14.64286,-28.92857 0,-15.97681 6.55583,-28.92857 14.64286,-28.92857 8.0039,0 14.52478,12.69652 14.6413,28.50743"
         sodipodi:ry="28.928572"
         sodipodi:rx="14.642857"
         sodipodi:cy="390.57648"
         sodipodi:cx="457.5"
         id="path3306"
         style="fill:#ffffff;fill-opacity:1;stroke:none"
         sodipodi:type="arc" />
      <path
         transform="matrix(0.448276,0,0,0.611111,282.759,133.855)"
         d="m 398.57143,419.50504 c 0,14.2016 -9.2741,25.71428 -20.71428,25.71428 -11.44019,0 -20.71429,-11.51268 -20.71429,-25.71428 0,-14.20161 9.2741,-25.71429 20.71429,-25.71429 11.44018,0 20.71428,11.51268 20.71428,25.71429 z"
         sodipodi:ry="25.714285"
         sodipodi:rx="20.714285"
         sodipodi:cy="419.50504"
         sodipodi:cx="377.85715"
         id="path3308"
         style="fill:#000000;fill-opacity:1;stroke:none"
         sodipodi:type="arc" />
      <path
         transform="translate(-15,5)"
         d="m 468.57142,379.86218 c 0,4.53663 -3.19797,8.21429 -7.14286,8.21429 -3.94489,0 -7.14286,-3.67766 -7.14286,-8.21429 0,-4.53662 3.19797,-8.21428 7.14286,-8.21428 3.94489,0 7.14286,3.67766 7.14286,8.21428 z"
         sodipodi:ry="8.2142859"
         sodipodi:rx="7.1428571"
         sodipodi:cy="379.86218"
         sodipodi:cx="461.42856"
         id="path3310"
         style="fill:#ffffff;fill-opacity:1;stroke:none"
         sodipodi:type="arc" />
    </g>
    <g
       id="g3464"
       transform="matrix(0.11224574,0,0,0.10345443,-4.8375726,962.72939)"
       style="fill:url(#linearGradient3922);fill-opacity:1;stroke:none;stroke-width:0.92798407;stroke-miterlimit:4;stroke-dasharray:none">
      <path
         sodipodi:nodetypes="czssssc"
         id="path3466"
         d="m 536.46702,497.59497 c 7.14286,-12.85714 20.12331,-37.07361 35.71428,-46.23423 15.16836,-8.91232 31.42858,-14.28571 41.42858,-4.28571 10,10 14.28571,20 44.28571,25.71428 30,5.71429 48.20373,-6.06219 47.14286,5.71429 -2.7549,30.58165 -40.90863,56.37781 -94.28571,48.57143 -35.75991,-5.22987 -44.84772,-8.64322 -74.28572,-29.48006 z"
         style="fill:url(#linearGradient3920);fill-opacity:1;fill-rule:evenodd;stroke:none;stroke-width:0.92798407;stroke-miterlimit:4;stroke-dasharray:none"
         inkscape:connector-curvature="0" />
    </g>
  </g>
</svg>
