<?xml version="1.0" encoding="UTF-8" standalone="no"?>
<!-- Created with Inkscape (http://www.inkscape.org/) -->

<svg
   xmlns:dc="http://purl.org/dc/elements/1.1/"
   xmlns:cc="http://creativecommons.org/ns#"
   xmlns:rdf="http://www.w3.org/1999/02/22-rdf-syntax-ns#"
   xmlns:svg="http://www.w3.org/2000/svg"
   xmlns="http://www.w3.org/2000/svg"
   xmlns:xlink="http://www.w3.org/1999/xlink"
   xmlns:sodipodi="http://sodipodi.sourceforge.net/DTD/sodipodi-0.dtd"
   xmlns:inkscape="http://www.inkscape.org/namespaces/inkscape"
   width="90"
   height="80"
   id="svg2728"
   sodipodi:version="0.32"
   inkscape:version="0.48.2 r9819"
   version="1.0"
   sodipodi:docname="vaca.svg"
   inkscape:output_extension="org.inkscape.output.svg.inkscape">
  <defs
     id="defs2730">
    <linearGradient
       id="linearGradient2342">
      <stop
         style="stop-color:#c98b2b;stop-opacity:0.0000000;"
         offset="0.0000000"
         id="stop2344" />
      <stop
         style="stop-color:#c98b2b;stop-opacity:1.0000000;"
         offset="1.0000000"
         id="stop2346" />
    </linearGradient>
    <linearGradient
       inkscape:collect="always"
       xlink:href="#linearGradient2342"
       id="linearGradient2492"
       gradientUnits="userSpaceOnUse"
       gradientTransform="matrix(0.650482,0,0,0.650482,99.7539,-71.8997)"
       x1="95.61174"
       y1="326.1926"
       x2="373.43198"
       y2="326.1926" />
  </defs>
  <sodipodi:namedview
     id="base"
     pagecolor="#ffffff"
     bordercolor="#666666"
     borderopacity="1.0"
     gridtolerance="10000"
     guidetolerance="10"
     objecttolerance="10"
     inkscape:pageopacity="0.0"
     inkscape:pageshadow="2"
     inkscape:zoom="2.8501371"
     inkscape:cx="49.558788"
     inkscape:cy="57.278633"
     inkscape:document-units="px"
     inkscape:current-layer="layer1"
     showgrid="false"
     inkscape:window-width="1024"
     inkscape:window-height="576"
     inkscape:window-x="0"
     inkscape:window-y="24"
     inkscape:window-maximized="1" />
  <metadata
     id="metadata2733">
    <rdf:RDF>
      <cc:Work
         rdf:about="">
        <dc:format>image/svg+xml</dc:format>
        <dc:type
           rdf:resource="http://purl.org/dc/dcmitype/StillImage" />
      </cc:Work>
    </rdf:RDF>
  </metadata>
  <g
     inkscape:label="Layer 1"
     inkscape:groupmode="layer"
     id="layer1"
     transform="translate(-112.342,-548.619)">
    <g
       id="g3599"
       transform="matrix(0.25223407,0,0,0.25347513,74.061374,541.29713)">
      <path
         sodipodi:nodetypes="ccccccccc"
         id="rect21334"
         d="m 450.65146,131.12852 -1.76664,3.81371 c 14.9047,-4.02888 34.13462,19.47615 43.1146,52.69728 l 1.869,6.9143 c 6.9375,25.66503 5.66573,49.39861 -2.14269,60.72579 11.51577,-8.13819 14.55417,-35.38004 6.48397,-65.23545 l -1.869,-6.91429 c -8.97998,-33.22114 -28.2099,-56.72617 -43.1146,-52.69729 l -2.57464,0.69595 z"
         style="fill:#eaeaa4;fill-opacity:1;stroke:#000000;stroke-width:1.88639867;stroke-miterlimit:4;stroke-opacity:1;stroke-dasharray:none"
         inkscape:connector-curvature="0" />
      <rect
         id="rect16396"
         style="fill:#2e3436;stroke:#000000;stroke-width:0.6504823"
         y="221.06985"
         x="419.26044"
         height="80.551567"
         width="19.816954" />
      <rect
         id="rect16398"
         style="fill:#2e3436;stroke:#000000;stroke-width:0.6504823"
         y="236.41353"
         x="431.59824"
         height="80.550705"
         width="19.81782" />
      <path
         id="path16400"
         style="fill:#000000;stroke:#000000;stroke-width:0.6504823"
         d="m 429.51822,282.03498 c -12.52824,0 -20.02515,1.31399 -22.68423,20.68258 -1.16885,8.50076 1.18009,13.72388 5.09959,16.80195 0.78874,-3.54457 2.83273,-11.1797 4.1925,-13.61071 1.26907,9.23334 -1.2898,11.1417 0.0311,15.92596 4.64258,1.63709 10.24324,1.54465 15.36356,0.25053 13.19431,-3.3381 20.68171,-1.22242 20.68171,-19.36773 8.7e-4,-18.10902 -10.15684,-20.68258 -22.68423,-20.68258 z"
         inkscape:connector-curvature="0" />
      <path
         id="path16402"
         style="fill:#000000;stroke:#000000;stroke-width:0.6504823"
         d="m 437.66363,296.69546 c -12.96797,0 -20.72836,1.36064 -23.48074,21.40653 -1.20773,8.7988 1.22328,14.20507 5.27841,17.39113 0.81639,-3.66811 2.93294,-11.57278 4.33937,-14.08845 1.31398,9.55644 -1.33559,11.53304 0.0328,16.4849 4.80499,1.69411 10.60261,1.59908 15.90176,0.25917 13.65737,-3.45559 21.40653,-1.26388 21.40653,-20.04675 8.7e-4,-18.74486 -10.51191,-21.40653 -23.47816,-21.40653 z"
         inkscape:connector-curvature="0" />
      <rect
         id="rect16404"
         style="fill:#2e3436;stroke:#000000;stroke-width:0.6504823"
         y="221.06985"
         x="245.08524"
         height="80.551567"
         width="19.816954" />
      <rect
         id="rect16406"
         style="fill:#2e3436;stroke:#000000;stroke-width:0.6504823"
         y="236.41353"
         x="283.44232"
         height="80.550705"
         width="19.81782" />
      <path
         id="path16408"
         style="fill:#000000;stroke:#000000;stroke-width:0.6504823"
         d="m 252.7411,279.43305 c -12.52825,0 -20.02602,1.31399 -22.68423,20.68258 -1.168,8.50076 1.18095,13.72388 5.09959,16.80195 0.7896,-3.54457 2.83272,-11.1797 4.19336,-13.61071 1.26907,9.23334 -1.2898,11.1417 0.032,15.92596 4.64258,1.63709 10.24323,1.54465 15.36269,0.25053 13.19518,-3.3381 20.68085,-1.22241 20.68085,-19.36773 0,-18.10902 -10.15685,-20.68258 -22.68423,-20.68258 z"
         inkscape:connector-curvature="0" />
      <path
         id="path16410"
         style="fill:#000000;stroke:#000000;stroke-width:0.6504823"
         d="m 289.50773,296.69546 c -12.9671,0 -20.7275,1.36064 -23.47988,21.40653 -1.20859,8.7988 1.22155,14.20507 5.27842,17.39113 0.81724,-3.66811 2.93206,-11.57278 4.34022,-14.08845 1.31399,9.55644 -1.33559,11.53304 0.0328,16.4849 4.805,1.69411 10.60175,1.59908 15.90091,0.25917 13.65822,-3.45559 21.40738,-1.26388 21.40738,-20.04675 0,-18.74486 -10.51363,-21.40653 -23.47988,-21.40653 z"
         inkscape:connector-curvature="0" />
      <path
         sodipodi:nodetypes="ccccc"
         id="path18365"
         d="m 232.34601,216.49851 43.58232,-1.30096 -7.80579,68.95112 c -9.32358,3.25241 -17.3462,4.55338 -27.97074,0 l -7.80579,-67.65016 z"
         style="fill:#dcd59a;fill-opacity:1;stroke:#000000;stroke-width:3.2524116;stroke-miterlimit:4;stroke-opacity:1;stroke-dasharray:none"
         inkscape:connector-curvature="0" />
      <path
         id="path19376"
         d="m 263.24392,230.15817 c -10.59245,0 -19.18923,8.01394 -19.18923,17.88826 0,9.87432 8.59678,17.88826 19.18923,17.88826 2.33314,0 4.55784,-0.38583 6.62679,-1.09769 l 3.61831,-31.91428 c -2.96631,-1.75207 -6.47606,-2.76455 -10.2451,-2.76455 z"
         style="fill:#000000;fill-opacity:1;stroke:#000000;stroke-width:1.95144689;stroke-miterlimit:4;stroke-opacity:1;stroke-dasharray:none"
         inkscape:connector-curvature="0" />
      <path
         style="fill:#c8c8c8;fill-opacity:1;stroke:#000000;stroke-width:3.2524116;stroke-miterlimit:4;stroke-opacity:1;stroke-dasharray:none"
         d="m 407.97623,219.10044 43.58232,-1.30096 -7.80579,68.95112 c -9.32358,3.25241 -17.3462,4.55338 -27.97074,0 l -7.80579,-67.65016 z"
         id="path18359"
         sodipodi:nodetypes="ccccc"
         inkscape:connector-curvature="0" />
      <rect
         transform="matrix(0.989016,0.147812,-0.147812,0.989016,0,0)"
         ry="7.5086098"
         rx="5.4215522"
         y="193.28798"
         x="373.61777"
         height="43.939274"
         width="11.817254"
         id="rect35930"
         style="fill:#dc634c;fill-opacity:1;stroke:#000000;stroke-width:2.13643622;stroke-miterlimit:4;stroke-opacity:1;stroke-dasharray:none" />
      <rect
         transform="matrix(0.996731,0.0807911,-0.0807911,0.996731,0,0)"
         style="fill:#dc634c;fill-opacity:1;stroke:#000000;stroke-width:2.13643622;stroke-miterlimit:4;stroke-opacity:1;stroke-dasharray:none"
         id="rect35926"
         width="11.817253"
         height="43.93927"
         x="399.00992"
         y="215.08304"
         rx="5.4215522"
         ry="7.5086102" />
      <path
         id="rect34953"
         d="m 360.55855,205.18291 c -19.9462,0 -36.00943,15.87812 -36.00943,35.60118 0,18.30354 13.84033,33.28121 31.77303,35.34444 l -1.30097,16.08899 c 0,4.15977 2.41979,7.5139 5.42334,7.5139 l 0.98605,0 c 3.00354,0 5.42333,-3.35414 5.42333,-7.5139 l 1.30096,-15.83225 20.88986,0 c 1.58655,0 3.14336,-0.11322 4.67465,-0.30809 l 2.60193,12.23745 c 0,4.15977 2.41979,7.51391 5.42333,7.51391 l 0.98606,0 c 3.00354,0 5.42333,-3.35414 5.42333,-7.51391 l -2.60193,-15.86603 c 11.59569,-5.9005 19.50206,-17.83539 19.50206,-31.66451 0,-19.72306 -16.06323,-35.60118 -36.00943,-35.60118 l -28.48617,0 z"
         style="fill:#ef856d;fill-opacity:1;stroke:#000000;stroke-width:2.82862377;stroke-miterlimit:4;stroke-opacity:1;stroke-dasharray:none"
         sodipodi:nodetypes="cscccccccccccccscc"
         inkscape:connector-curvature="0" />
      <path
         sodipodi:nodetypes="csccccccccscc"
         id="rect14316"
         d="m 280.92891,113.11201 c -33.01528,0 -59.60044,32.03949 -59.60044,71.83764 0,35.86918 21.5915,65.43468 50.02615,70.92289 l 5.22419,45.1882 c 10.62454,4.55337 18.64716,3.25241 27.97074,0 l 5.02091,-41.67153 c 35.90527,6.50483 67.25716,3.25242 105.76435,-2.60193 l 8.253,44.27346 c 10.62454,4.55337 18.64716,3.25241 27.97074,0 l 7.62284,-67.36558 c 9.78253,-12.78844 15.75387,-29.89816 15.75387,-48.74551 0,-39.79815 -26.58516,-71.83764 -59.60045,-71.83764 l -134.4059,0 z"
         style="fill:#dcdcdc;fill-opacity:1;stroke:#000000;stroke-width:3.19262099;stroke-miterlimit:4;stroke-opacity:1;stroke-dasharray:none"
         inkscape:connector-curvature="0" />
      <path
         id="path39864"
         d="m 279.445,114.4333 c -22.40449,0.44928 -41.59459,17.30194 -50.0065,37.34633 -12.89464,29.42862 -7.58562,67.44974 16.48633,89.66034 7.37678,6.753 16.72475,11.60326 26.60879,13.35521 1.94716,15.07358 3.22204,30.7432 5.5291,45.45245 7.9987,3.60628 17.31613,2.86957 25.2875,-0.16262 1.7071,-14.07264 3.36392,-28.15169 5.10222,-42.22036 35.68082,7.04017 72.35777,3.06832 107.93941,-2.56128 2.76997,14.9435 5.57221,29.88108 8.35463,44.8223 8.02884,3.69577 17.54008,3.06329 25.61274,-0.0407 2.65715,-22.36215 4.82061,-44.92558 7.78546,-67.16229 22.74931,-30.10944 20.53664,-77.07783 -6.87072,-103.58931 -10.82635,-10.58114 -26.00532,-16.05191 -41.143,-14.92044 -43.56189,0.0136 -87.12457,-0.0272 -130.68596,0.0203 z"
         style="fill:#f4eebd;fill-opacity:0.87898087;stroke:#000000;stroke-width:1.95144689;stroke-miterlimit:4;stroke-opacity:1;stroke-dasharray:none"
         inkscape:connector-curvature="0" />
      <path
         sodipodi:nodetypes="cccccccccccc"
         id="path29134"
         d="m 339.02511,245.11926 c -48.65546,9.43199 -99.07659,-10.40772 -99.07659,-10.40772 8.27824,8.89416 18.62607,16.34349 30.10514,18.55908 l 5.22418,45.18819 c 10.62455,4.55337 18.64717,3.25241 27.97074,0 l 5.6714,-39.0696 c 35.90527,6.50483 67.90764,2.60193 106.41483,-3.25241 l 8.90348,46.2249 c 10.62454,4.55338 28.4044,-0.65048 26.01929,-5.20386 l 7.62284,-67.36557 c 9.78253,-12.78844 15.75387,-29.89816 15.75387,-48.74552 -39.54774,-46.30483 -47.60793,38.78097 -134.60918,64.07251 z"
         style="fill:#dcd59a;fill-opacity:1;stroke:none"
         inkscape:connector-curvature="0" />
      <path
         sodipodi:nodetypes="cscccc"
         id="path15287"
         d="m 401.47141,139.09064 c -16.87611,0 -30.57267,6.84828 -30.57267,15.28634 0,6.37932 7.83293,11.85824 18.9453,14.14799 2.00209,6.31276 7.90716,10.89558 14.87978,10.89558 10.35498,0.75953 27.3942,-13.15646 27.32026,-25.04357 0,-8.43806 -13.69656,-15.28634 -30.57267,-15.28634 z"
         style="fill:#000000;fill-opacity:1;stroke:#000000;stroke-width:1.95144689;stroke-miterlimit:4;stroke-opacity:1;stroke-dasharray:none"
         inkscape:connector-curvature="0" />
      <path
         id="path15307"
         d="m 461.33611,178.54646 c -2.29481,0.0763 -11.87957,4.65364 -14.24963,11.74934 -2.37006,7.09569 -2.95368,11.79266 -5.26484,24.27112 -0.22189,-0.006 -0.44705,-0.0203 -0.67081,-0.0203 -10.41292,0 -18.86399,6.70257 -18.86399,14.96109 0,8.25853 8.45107,14.9611 18.86399,14.9611 0.007,0 0.0135,0 0.0203,0 0.17288,6.49227 5.47984,11.70868 12.01359,11.70868 1.22329,0 2.40413,-0.18871 3.51667,-0.52852 l 2.47997,-21.93345 c -0.0731,-0.0421 -0.14961,-0.0814 -0.22361,-0.12196 10.45724,-13.55005 14.98057,-32.28958 15.95715,-48.64388 0,-0.10928 4.1e-4,-0.21609 0,-0.32525 -3.92097,-4.03933 -8.92545,-6.23273 -13.57882,-6.07794 z"
         style="fill:#000000;fill-opacity:1;stroke:#000000;stroke-width:1.95144689;stroke-miterlimit:4;stroke-opacity:1;stroke-dasharray:none"
         inkscape:connector-curvature="0" />
      <path
         id="path19358"
         d="m 369.04893,234.73187 c -7.10556,0 -12.8991,4.1158 -13.17226,9.26937 -12.11237,1.41108 -21.20166,7.28349 -21.20166,14.29029 0,1.48153 0.40322,2.90075 1.15867,4.24846 17.32272,1.0453 34.22515,0.076 52.22153,-2.01243 0.20716,-0.7305 0.30492,-1.47416 0.30492,-2.23603 -1e-5,-3.85807 -2.75792,-7.36963 -7.25695,-9.98084 0.7292,-1.19856 1.13835,-2.52718 1.13835,-3.92322 2e-5,-5.32968 -5.91304,-9.6556 -13.1926,-9.6556 z"
         style="fill:#000000;fill-opacity:1;stroke:#000000;stroke-width:2.35493159;stroke-miterlimit:4;stroke-opacity:1;stroke-dasharray:none"
         inkscape:connector-curvature="0" />
      <path
         id="path19371"
         d="m 280.15646,264.81668 c -2.7749,0 -5.36032,0.69549 -7.56186,1.87013 l 2.60193,22.34 c 1.55178,0.49311 3.21121,0.79278 4.95993,0.79278 7.97316,0 14.45291,-5.60549 14.45291,-12.50146 0,-6.89596 -6.47975,-12.50147 -14.45291,-12.50145 z"
         style="fill:#000000;fill-opacity:1;stroke:#000000;stroke-width:1.95144689;stroke-miterlimit:4;stroke-opacity:1;stroke-dasharray:none"
         inkscape:connector-curvature="0" />
      <path
         id="path19381"
         d="m 438.63732,272.78839 c -2.01574,0 -3.86579,0.7335 -5.33871,1.94393 -0.78581,-0.85703 -1.87129,-1.39343 -3.07575,-1.39343 -2.39277,0 -4.33472,2.09627 -4.33472,4.67917 0,2.50806 1.83071,4.56251 4.12755,4.67918 0.39901,4.62695 4.10206,8.25738 8.62163,8.25738 4.78554,0 8.66945,-4.06923 8.66945,-9.08311 0,-5.01388 -3.88391,-9.08312 -8.66945,-9.08312 z"
         style="fill:#000000;fill-opacity:1;stroke:#000000;stroke-width:1.95144689;stroke-miterlimit:4;stroke-opacity:1;stroke-dasharray:none"
         inkscape:connector-curvature="0" />
      <path
         sodipodi:nodetypes="cccccccccccsc"
         id="path23285"
         d="m 500.14941,231.70525 c -5.17479,-0.54074 -8.4423,0.90117 -12.26681,26.87502 -1.67855,11.4008 -1.45864,15.94385 -0.27378,20.25943 0.82466,-4.73982 2.76312,-12.33113 3.66647,-15.54649 -0.77529,12.49199 -0.80273,12.33765 -0.9301,18.83928 1.31797,1.87904 1.72382,4.97315 3.50332,4.36844 1.6103,-11.53276 4.95945,-35.60126 4.95945,-35.60126 l -2.84705,31.87155 c 1.65396,-1.0057 1.75077,-2.82552 2.9661,-3.69389 0.79687,-11.32004 1.75301,-17.909 1.75301,-17.909 l 0.49771,23.18888 c 1.64103,-2.86469 5.34547,-6.93662 5.43013,-23.80983 0.12307,-24.52793 -1.28438,-28.30145 -6.45845,-28.84213 z"
         style="fill:#000000;stroke:#000000;stroke-width:0.6504823"
         inkscape:connector-curvature="0" />
      <path
         id="path15302"
         d="m 352.03476,167.71186 c -13.28545,0 -24.06785,10.63669 -24.06785,23.74261 0,0.68045 0.0447,1.34643 0.10164,2.01243 -3.33098,0.0905 -6.84175,0.55892 -10.40772,1.4026 -16.59744,3.92684 -28.21141,14.906 -25.93798,24.51505 2.27344,9.60904 17.59354,14.21259 34.19098,10.28575 10.96326,-2.59383 19.75179,-8.25244 23.80358,-14.57486 0.76265,0.072 1.53568,0.10163 2.31735,0.10163 13.28545,0 24.06784,-10.63668 24.06784,-23.7426 0,-13.10592 -10.78239,-23.74261 -24.06784,-23.74261 z"
         style="fill:#000000;fill-opacity:1;stroke:#000000;stroke-width:1.95144689;stroke-miterlimit:4;stroke-opacity:1;stroke-dasharray:none"
         inkscape:connector-curvature="0" />
      <g
         transform="matrix(0.833037,0,0,0.833037,25.6799,5.83137)"
         id="g3521">
        <path
           sodipodi:nodetypes="cccsz"
           id="path11400"
           d="m 223.70633,46.120311 c 5.02308,1.561431 -0.18157,7.764092 26.60263,18.606956 1.73906,10.595322 -7.42618,18.464128 -19.99183,23.719954 -7.62388,-4.512175 -13.42846,-14.422578 -14.2149,-21.002519 -1.05002,-8.785219 2.35203,-22.95701 7.6041,-21.324391 z"
           style="fill:#eeeeec;fill-opacity:1;stroke:#000000;stroke-width:1.95144689;stroke-miterlimit:4;stroke-opacity:1;stroke-dasharray:none"
           inkscape:connector-curvature="0" />
        <path
           style="fill:#eeeeec;fill-opacity:1;stroke:#000000;stroke-width:1.95144689;stroke-miterlimit:4;stroke-opacity:1;stroke-dasharray:none"
           d="m 222.62943,47.311657 c -3.91907,2.329455 -4.30728,7.980026 -5.12255,12.05425 -1.95975,10.82275 4.14998,21.568503 12.90801,27.62517 8.07609,-3.5412 17.93471,-9.184296 18.78268,-18.945297 0.98069,-3.738322 -4.0268,-3.445227 -6.17958,-5.061565 -7.16523,-3.384726 -14.53194,-7.61374 -18.43711,-14.839128 -0.4942,-0.513159 -1.20292,-0.945216 -1.95145,-0.83343 z"
           id="path39860"
           inkscape:connector-curvature="0" />
        <path
           sodipodi:nodetypes="csssc"
           id="path13343"
           d="m 157.25559,121.33643 c 7.7722,6.18617 30.4581,0.3555 50.63816,-13.0149 20.18005,-13.370397 28.63684,-33.691399 22.478,-35.428596 -4.28941,-1.209891 -30.4581,-0.355509 -50.63816,13.014895 -20.18006,13.37041 -30.2502,29.242411 -22.478,35.428601 z"
           style="fill:#dcdcdc;fill-opacity:1;stroke:#000000;stroke-width:1.64876497;stroke-miterlimit:4;stroke-opacity:1;stroke-dasharray:none"
           inkscape:connector-curvature="0" />
        <path
           style="fill:#dcd59a;fill-opacity:1;stroke:#000000;stroke-width:1.64876497;stroke-miterlimit:4;stroke-opacity:1;stroke-dasharray:none"
           d="m 223.54417,73.839138 c -20.40933,0.820753 -40.56546,8.525572 -55.35197,22.68557 -5.47426,5.469682 -12.27348,11.853872 -12.19655,20.205602 1.05226,5.69334 8.38369,6.08352 13.02998,5.6714 15.88425,-1.82235 30.77347,-9.50939 43.41969,-19.02661 8.22477,-6.923799 16.19162,-15.457671 18.55907,-26.161585 0.70397,-2.27285 -1.14414,-3.83793 -3.31339,-3.354049 -1.38066,-0.07584 -2.76554,-0.08601 -4.14683,-0.02033 z"
           id="path39848"
           inkscape:connector-curvature="0" />
        <path
           style="fill:#dcdcdc;fill-opacity:1;stroke:#000000;stroke-width:3.2524116;stroke-miterlimit:4;stroke-opacity:1;stroke-dasharray:none"
           d="m 272.83854,53.613204 c -21.09399,0 -40.13893,10.253026 -53.64447,26.690102 -20.37957,4.719841 -37.1328,16.568974 -45.35081,34.414584 -5.11026,11.09705 -6.30773,23.19946 -4.16715,35.22768 -7.61741,7.70065 -10.92313,17.38704 -7.48055,24.04751 3.12918,6.05411 10.98845,7.95516 19.73807,5.61041 0.53233,0.80077 1.08468,1.58808 1.64654,2.37833 -8.41191,10.56773 -7.49775,23.00345 3.65896,30.87758 10.20708,7.20391 26.20119,8.6144 40.81776,4.61436 44.7207,19.65941 93.53417,7.64515 109.6266,-27.29993 3.23873,-7.03297 4.89778,-14.47048 5.14288,-22.03509 2.6815,-8.89878 4.14682,-18.4607 4.14682,-28.41794 0,-47.526424 -33.20676,-86.107596 -74.13465,-86.107596 z"
           id="path4576"
           inkscape:connector-curvature="0" />
        <path
           style="fill:#fbfec6;fill-opacity:1;stroke:#000000;stroke-width:1.95144689;stroke-miterlimit:4;stroke-opacity:1;stroke-dasharray:none"
           d="m 270.92774,54.284014 c -19.92595,0.469284 -38.67444,11.116612 -51.00187,26.527481 -20.66938,4.347694 -40.19966,18.360793 -46.97702,38.967955 -3.30143,9.57405 -3.74128,20.00876 -1.89047,29.94251 -5.77328,5.74588 -11.38092,14.82954 -7.72447,23.01082 3.65007,6.76441 12.74036,6.70848 19.1689,4.73632 1.79226,2.29247 3.59284,4.41093 0.67081,6.60646 -5.27779,7.03681 -5.32913,17.87462 1.30096,24.08817 11.32087,10.79254 28.83132,11.16984 43.25707,7.39924 11.07506,4.26012 22.79487,8.06545 34.81803,8.96694 23.85969,2.32303 50.20169,-4.34489 66.06771,-23.15559 8.3664,-9.6329 12.52328,-22.27543 13.15379,-34.87564 C 352.28082,131.29991 341.54232,89.100936 311.23732,67.009074 299.60969,58.52484 285.4071,53.816929 270.92774,54.284014 z"
           id="path39852"
           inkscape:connector-curvature="0" />
        <path
           style="fill:none;stroke:#000000;stroke-width:2.12030602;stroke-miterlimit:4;stroke-opacity:1;stroke-dasharray:none"
           d="m 229.09718,180.40037 c 0.26355,0.15924 0.52641,0.30868 0.79512,0.46382 13.41055,7.74259 28.12437,7.37124 32.86474,-0.83929 3.8669,-6.69767 -0.0933,-16.5353 -8.96713,-24.14056"
           id="path5548"
           sodipodi:nodetypes="csscc"
           inkscape:connector-curvature="0" />
        <path
           style="fill:#dcd59a;fill-opacity:1;stroke:none"
           d="m 323.49484,77.030567 c 1.50131,26.507893 -2.12172,71.049023 -16.89221,92.348163 -14.77049,21.29912 -27.39752,29.75028 -79.8467,46.79407 44.7207,19.65941 93.53416,7.64514 109.6266,-27.29993 3.23873,-7.03298 4.89778,-14.47049 5.14287,-22.03509 2.6815,-8.89879 4.14683,-18.4607 4.14683,-28.41795 0,-24.02893 -8.49438,-45.763696 -22.17739,-61.389263 z"
           id="path23309"
           sodipodi:nodetypes="czcscsc"
           inkscape:connector-curvature="0" />
        <path
           transform="matrix(0.569763,0.136159,-0.114604,0.259412,29.2666,-27.0804)"
           d="m 417,161.09448 c 0,12.70255 -5.14873,23 -11.5,23 -6.35127,0 -11.5,-10.29745 -11.5,-23 0,-12.70255 5.14873,-23 11.5,-23 6.35127,0 11.5,10.29745 11.5,23 z"
           sodipodi:ry="23"
           sodipodi:rx="11.5"
           sodipodi:cy="161.09448"
           sodipodi:cx="405.5"
           id="path3231"
           style="fill:#000000;fill-opacity:1;stroke:#000000;stroke-width:3;stroke-miterlimit:4;stroke-opacity:1;stroke-dasharray:none"
           sodipodi:type="arc" />
        <path
           transform="matrix(0.350623,0.0837903,-0.0705255,0.159638,112.676,7.9199)"
           sodipodi:type="arc"
           style="fill:#eeeeec;fill-opacity:1;stroke:#000000;stroke-width:3;stroke-miterlimit:4;stroke-opacity:1;stroke-dasharray:none"
           id="path3233"
           sodipodi:cx="405.5"
           sodipodi:cy="161.09448"
           sodipodi:rx="11.5"
           sodipodi:ry="23"
           d="m 417,161.09448 c 0,12.70255 -5.14873,23 -11.5,23 -6.35127,0 -11.5,-10.29745 -11.5,-23 0,-12.70255 5.14873,-23 11.5,-23 6.35127,0 11.5,10.29745 11.5,23 z" />
        <path
           sodipodi:type="arc"
           style="fill:#000001;fill-opacity:1;stroke:#000000;stroke-width:3;stroke-miterlimit:4;stroke-opacity:1;stroke-dasharray:none"
           id="path4568"
           sodipodi:cx="336.5"
           sodipodi:cy="269.09448"
           sodipodi:rx="24.5"
           sodipodi:ry="15"
           d="m 361,269.09448 c 0,8.28427 -10.96902,15 -24.5,15 -13.53098,0 -24.5,-6.71573 -24.5,-15 0,-8.28427 10.96902,-15 24.5,-15 13.53098,0 24.5,6.71573 24.5,15 z"
           transform="matrix(0.539871,0.311694,-0.311694,0.539871,138.132,-86.8762)" />
        <path
           transform="matrix(-0.445026,0.275557,0.256936,0.47728,261.894,-59.3004)"
           d="m 361,269.09448 c 0,8.28427 -10.96902,15 -24.5,15 -13.53098,0 -24.5,-6.71573 -24.5,-15 0,-8.28427 10.96902,-15 24.5,-15 13.53098,0 24.5,6.71573 24.5,15 z"
           sodipodi:ry="15"
           sodipodi:rx="24.5"
           sodipodi:cy="269.09448"
           sodipodi:cx="336.5"
           id="path4574"
           style="fill:#000000;fill-opacity:1;stroke:#000000;stroke-width:3;stroke-miterlimit:4;stroke-opacity:1;stroke-dasharray:none"
           sodipodi:type="arc" />
        <path
           sodipodi:type="arc"
           style="fill:#000000;fill-opacity:1;stroke:#000000;stroke-width:3;stroke-miterlimit:4;stroke-opacity:1;stroke-dasharray:none"
           id="path6524"
           sodipodi:cx="405.5"
           sodipodi:cy="161.09448"
           sodipodi:rx="11.5"
           sodipodi:ry="23"
           d="m 417,161.09448 c 0,12.70255 -5.14873,23 -11.5,23 -6.35127,0 -11.5,-10.29745 -11.5,-23 0,-12.70255 5.14873,-23 11.5,-23 6.35127,0 11.5,10.29745 11.5,23 z"
           transform="matrix(-0.7065,0.168836,0.142108,0.321668,534.597,-48.7339)" />
        <path
           d="m 417,161.09448 c 0,12.70255 -5.14873,23 -11.5,23 -6.35127,0 -11.5,-10.29745 -11.5,-23 0,-12.70255 5.14873,-23 11.5,-23 6.35127,0 11.5,10.29745 11.5,23 z"
           sodipodi:ry="23"
           sodipodi:rx="11.5"
           sodipodi:cy="161.09448"
           sodipodi:cx="405.5"
           id="path6526"
           style="fill:#eeeeec;fill-opacity:1;stroke:#000000;stroke-width:3;stroke-miterlimit:4;stroke-opacity:1;stroke-dasharray:none"
           sodipodi:type="arc"
           transform="matrix(-0.434769,0.103899,0.087451,0.19795,431.17,-5.33381)" />
        <path
           style="fill:none;stroke:#000000;stroke-width:1.95144689;stroke-linecap:butt;stroke-linejoin:miter;stroke-miterlimit:4;stroke-opacity:1;stroke-dasharray:none"
           d="m 182.97527,178.83645 c 0,0 4.04884,6.88421 20.17973,6.88421 16.13089,0 27.82413,-5.3171 27.82413,-5.3171"
           id="path7507"
           inkscape:connector-curvature="0" />
        <path
           style="fill:none;stroke:#000000;stroke-width:3.2524116;stroke-miterlimit:4;stroke-opacity:1;stroke-dasharray:none"
           d="m 245.39361,209.48754 c -0.33467,0.23589 -0.67544,0.45902 -1.02204,0.6902 -17.29739,11.53725 -42.873,12.74166 -57.13286,2.67739 -11.63236,-8.20983 -12.14292,-21.37194 -2.54392,-32.21252"
           id="path9447"
           sodipodi:nodetypes="csscc"
           inkscape:connector-curvature="0" />
        <path
           style="fill:none;stroke:#000000;stroke-width:1.95144689;stroke-linecap:butt;stroke-linejoin:miter;stroke-miterlimit:4;stroke-opacity:1;stroke-dasharray:none"
           d="m 206.32672,185.92584 c 0,0 -13.00965,-0.65048 -13.00965,13.00965"
           id="path9452"
           sodipodi:nodetypes="cs"
           inkscape:connector-curvature="0" />
        <path
           style="fill:#eeeeec;fill-opacity:1;stroke:#000000;stroke-width:1.95144689;stroke-miterlimit:4;stroke-opacity:1;stroke-dasharray:none"
           d="m 319.29523,36.290405 c -4.95549,2.797399 1.96222,8.185416 -23.8877,25.768726 0.57683,11.622356 12.06243,17.874623 26.54792,20.584506 7.03285,-6.515744 10.91114,-18.337428 10.24249,-25.488381 -0.89274,-9.547617 -7.72132,-23.789777 -12.90271,-20.864851 z"
           id="path10424"
           sodipodi:nodetypes="cccsz"
           inkscape:connector-curvature="0" />
        <path
           style="fill:#eeeeec;fill-opacity:1;stroke:#000000;stroke-width:1.95144689;stroke-miterlimit:4;stroke-opacity:1;stroke-dasharray:none"
           d="m 320.48636,37.229181 c -3.28892,1.29474 -2.69466,6.018588 -4.95527,8.400433 -4.74057,7.051033 -11.84348,12.207725 -18.767,17.070015 0.80194,9.464062 10.27092,14.680435 18.42912,16.980391 2.71126,0.375251 6.50432,3.142812 8.07949,-0.333788 6.85709,-8.565174 10.03152,-20.75717 5.48037,-31.08504 -1.81879,-3.98466 -3.42571,-9.50516 -7.96179,-11.052338 -0.0966,0.02119 -0.21709,-0.03537 -0.30492,0.02033 z"
           id="path39856"
           inkscape:connector-curvature="0" />
        <path
           style="fill:#dcdcdc;fill-opacity:1;stroke:#000000;stroke-width:1.95144689;stroke-miterlimit:4;stroke-opacity:1"
           d="m 396.16267,150.29011 c -8.70431,11.19801 -36.24601,4.36907 -61.47699,-15.2432 -25.23098,-19.61226 -37.11995,-52.17751 -29.9396,-55.815729 5.00085,-2.533882 36.24601,-4.369062 61.47699,15.243201 25.23098,19.612258 38.64392,44.617708 29.9396,55.815728 z"
           id="path12371"
           sodipodi:nodetypes="csssc"
           inkscape:connector-curvature="0" />
        <path
           style="fill:#dcd59a;fill-opacity:1;stroke:#000000;stroke-width:1.95144689;stroke-miterlimit:4;stroke-opacity:1"
           d="m 314.51006,79.022669 c -3.28668,0.423334 -7.35852,-0.210392 -9.89953,2.073412 -1.90943,6.416728 1.51838,13.142208 3.93536,19.066609 11.60897,24.92438 34.49392,43.39575 60.25911,51.9376 8.16014,2.2513 18.54383,4.48556 25.57209,-1.72784 5.78115,-6.57783 2.46224,-16.09517 -0.96171,-22.96247 -8.25257,-15.33675 -21.06639,-27.863521 -35.6809,-37.129557 -12.953,-7.668484 -28.16663,-11.532557 -43.22442,-11.257754 z"
           id="path38875"
           inkscape:connector-curvature="0" />
        <path
           id="path3503"
           d="m 281.87699,54.284014 c -19.92595,0.469284 -49.84491,11.773697 -62.17235,27.184566 -20.66938,4.347694 -40.19965,18.360793 -46.97701,38.96796 -3.30143,9.57405 -3.74128,20.00876 -1.89046,29.94251 -5.77329,5.74588 -11.38093,14.82953 -7.72448,23.01081 3.65007,6.76441 12.74036,6.70848 19.1689,4.73632 1.79227,2.29247 3.59284,4.41094 0.67081,6.60647 -5.27779,7.03681 -5.32912,17.87461 1.30096,24.08817 11.32087,10.79253 28.83132,11.16984 43.25707,7.39923 11.07506,4.26012 22.79487,8.06545 34.81803,8.96695 23.85969,2.32302 50.20169,-4.34489 66.06771,-23.15559 8.36639,-9.63291 10.55202,-22.27544 11.18253,-34.87564 13.31718,-38.90228 -15.23232,-32.05885 -35.79055,-73.206159 -5.81381,-4.24212 -1.26517,-18.710622 -5.61512,-26.146435 -4.34995,-7.435813 -9.05636,-13.752705 -16.29604,-13.519162 z"
           style="fill:url(#linearGradient2492);fill-opacity:0.31847133;stroke:none"
           sodipodi:nodetypes="cccccccccccccsc"
           inkscape:connector-curvature="0" />
      </g>
    </g>
  </g>
</svg>
